<svg width="34" height="38" fill="none" xmlns="http://www.w3.org/2000/svg"><path d="M30.6 4.453h-1.133V3.34c0-1.842-1.526-3.34-3.4-3.34H3.4C1.525 0 0 1.498 0 3.34v26.867c0 1.841 1.525 3.34 3.4 3.34h1.133v1.113c0 1.842 1.526 3.34 3.4 3.34H30.6c1.874 0 3.4-1.498 3.4-3.34V7.793c0-1.841-1.526-3.34-3.4-3.34zM5.53 8.58a3.288 3.288 0 00-.997 2.362V31.32H3.4c-.625 0-1.133-.5-1.133-1.113V3.34c0-.614.508-1.113 1.133-1.113h22.667c.625 0 1.133.499 1.133 1.113v1.113H11.14c-.909 0-1.763.347-2.405.978l-3.206 3.15zm5.803-1.9v4.453H6.8v-.19c0-.298.118-.578.332-.788l3.206-3.15c.213-.21.498-.325.801-.325h.194zm20.4 27.98c0 .614-.508 1.113-1.133 1.113H7.933c-.625 0-1.133-.5-1.133-1.113v-21.3h5.667c.625 0 1.133-.5 1.133-1.114V6.68h17c.625 0 1.133.5 1.133 1.113V34.66z" fill="#13377D"/><path d="M28.333 15.734H10.2c-.626 0-1.134.5-1.134 1.114 0 .614.508 1.113 1.134 1.113h18.133c.626 0 1.133-.499 1.133-1.113 0-.615-.507-1.114-1.133-1.114zM28.333 20.188H10.2c-.626 0-1.134.498-1.134 1.113 0 .614.508 1.113 1.134 1.113h18.133c.626 0 1.133-.499 1.133-1.113 0-.615-.507-1.113-1.133-1.113zM28.333 24.64H10.2c-.626 0-1.134.5-1.134 1.114 0 .614.508 1.113 1.134 1.113h18.133c.626 0 1.133-.499 1.133-1.113 0-.615-.507-1.113-1.133-1.113zM28.333 29.094H10.2c-.626 0-1.134.498-1.134 1.113s.508 1.113 1.134 1.113h18.133c.626 0 1.133-.498 1.133-1.113 0-.614-.507-1.113-1.133-1.113z" fill="#13377D"/></svg>