<svg width="343" height="96" fill="none" xmlns="http://www.w3.org/2000/svg"><g clip-path="url(#clip0)"><path d="M106.4 35.6h-1.8v-11h1.8l3.7 5 3.7-5h1.8v11h-1.8v-8.4l-3.2 4.2h-1.1l-3.2-4.2.1 8.4zM120.1 35.6h-1.6v-11h1.8v8.1l6.3-8.1h1.6v11h-1.8v-8.1l-6.3 8.1zM132.8 35.6H131v-11h1.8V29h6v-4.4h1.8v11h-1.8v-5.1h-6v5.1zM145 35.6h-1.5v-11h1.8v8.1l6.3-8.1h1.6v11h-1.8v-8.1l-6.4 8.1zM161.5 35.8c-1.7 0-3.2-.5-4.3-1.6-1.2-1.1-1.7-2.5-1.7-4.1 0-1.7.6-3 1.7-4.1 1.2-1.1 2.6-1.6 4.3-1.6 1.2 0 2.2.3 3.1.7v1.7c-.9-.6-1.9-.9-3.1-.9-1.2 0-2.2.4-3 1.2-.8.8-1.2 1.7-1.2 2.9s.4 2.2 1.2 2.9c.8.8 1.8 1.2 3.1 1.2s2.4-.3 3.3-1v1.7c-1.1.7-2.2 1-3.4 1zM166.3 26.2v-1.6h9.4v1.6h-3.8v9.5h-1.8v-9.5h-3.8zM186 35.6h-8.4v-11h8.2v1.6h-6.4V29h5.2v1.6h-5.2V34h6.6v1.6zM189.7 35.6H188v-11h5c1.2 0 2.2.3 2.8.9.7.6 1.1 1.4 1.1 2.3 0 .9-.4 1.7-1.1 2.4-.7.6-1.6.9-2.8.9h-3.2v4.5h-.1zm0-9.4v3.3h3c.7 0 1.2-.2 1.6-.4.4-.3.6-.7.6-1.2s-.2-.9-.6-1.2c-.4-.3-.9-.4-1.6-.4l-3-.1zM204.4 35.8c-1.7 0-3.2-.5-4.3-1.6-1.2-1.1-1.7-2.5-1.7-4.1 0-1.7.6-3 1.7-4.1 1.2-1.1 2.6-1.6 4.3-1.6 1.2 0 2.2.3 3.1.7v1.7c-.9-.6-1.9-.9-3.1-.9-1.2 0-2.2.4-3 1.2-.8.8-1.2 1.7-1.2 2.9s.4 2.2 1.2 2.9c.8.8 1.8 1.2 3.1 1.2s2.4-.3 3.3-1v1.7c-1 .7-2.1 1-3.4 1zM209.2 26.2v-1.6h9.4v1.6h-3.8v9.5H213v-9.5h-3.8zM226.1 35.6h-5.6v-11h5.2c1.1 0 1.8.3 2.5.7.6.5.9 1.2.9 2 0 .5-.2 1-.4 1.4-.3.4-.6.7-1.1.8.7.1 1.3.5 1.7 1 .4.5.7 1.2.7 2 0 .9-.4 1.7-1.1 2.3-.6.5-1.5.8-2.8.8zm-3.8-9.4V29h3.1c.6 0 1.1-.1 1.4-.4.3-.3.5-.6.5-1.1 0-.5-.2-.8-.5-1.1-.3-.3-.8-.4-1.4-.4h-3.1v.2zm0 4.3V34h3.5c.7 0 1.3-.2 1.6-.5.4-.3.6-.7.6-1.3 0-.5-.2-.9-.6-1.3-.4-.3-.9-.4-1.6-.4h-3.5zM241.8 34.2c-1.1 1.1-2.5 1.6-4.2 1.6-1.7 0-3.1-.5-4.2-1.6s-1.6-2.5-1.6-4.1c0-1.6.5-3 1.6-4 1.1-1.1 2.5-1.7 4.2-1.7 1.7 0 3.1.6 4.2 1.7s1.7 2.5 1.7 4-.6 3-1.7 4.1zm-7-1.2c.8.8 1.7 1.2 2.8 1.2 1.1 0 2.1-.4 2.8-1.2.8-.8 1.2-1.8 1.2-2.9 0-1.2-.4-2.2-1.2-2.9-.8-.8-1.7-1.2-2.8-1.2-1.1 0-2.1.4-2.8 1.2-.8.8-1.2 1.7-1.2 2.9s.4 2.1 1.2 2.9zM252 35.6h-1.8v-11h1.8V29h6v-4.4h1.8v11H258v-5.1h-6v5.1zM263.5 35.6h-1.9l5-11.1h1.7l5 11.1h-1.9l-1.3-2.7h-5.4l-1.2 2.7zm4-8.9l-2.1 4.6h4.2l-2.1-4.6zM276.8 35.8c-.7 0-1.3-.1-1.6-.3v-1.6c.4.2.8.3 1.3.3s.8-.1 1.2-.4c.3-.2.6-.7 1-1.5l-4.5-7.8h2.1l3.4 6 2.8-6h1.9l-4.2 8.7c-.9 1.8-2 2.6-3.4 2.6zM287.9 35.6h-1.8v-11h1.8v4.5l4.7-4.5h2.3l-5.3 5 6.2 6h-2.4l-5.4-5.3v5.3h-.1zM299 35.6h-1.5v-11h1.8v8.1l6.3-8.1h1.6v11h-1.8v-8.1l-6.4 8.1zM106.2 54.7h-1.5v-11h1.8v8.1l6.3-8.1h1.6v11h-1.8v-8.1l-6.4 8.1zM127.1 54.7h-5.6v-11h5.2c1.1 0 1.8.3 2.5.7.6.5.9 1.2.9 2 0 .5-.2 1-.4 1.4-.2.4-.6.7-1.1.8.7.1 1.3.5 1.7 1 .4.5.7 1.2.7 2 0 .9-.4 1.7-1.1 2.3-.7.5-1.6.8-2.8.8zm-3.8-9.5V48h3.1c.6 0 1.1-.1 1.4-.4.3-.3.5-.6.5-1.1 0-.5-.2-.8-.5-1.1-.3-.3-.8-.4-1.4-.4h-3.1v.2zm0 4.4v3.5h3.5c.7 0 1.3-.2 1.6-.5.4-.3.6-.7.6-1.3 0-.5-.2-.9-.6-1.3-.4-.3-.9-.4-1.6-.4h-3.5zM137.6 54.7h-4.4v-11h1.8v3.8h2.6c1.3 0 2.4.3 3.2 1 .8.7 1.2 1.5 1.2 2.6s-.4 1.9-1.2 2.6c-.9.7-1.9 1-3.2 1zm-2.6-5.6v4h2.5c.8 0 1.4-.2 1.9-.5s.7-.8.7-1.5-.2-1.2-.7-1.5c-.5-.3-1.1-.5-1.9-.5H135zm10.2 5.6h-1.8v-11h1.8v11zM153.5 54.9c-1.7 0-3.2-.5-4.3-1.6-1.2-1.1-1.7-2.5-1.7-4.1 0-1.7.6-3 1.7-4.1 1.2-1.1 2.6-1.6 4.3-1.6 1.2 0 2.2.3 3.1.7v1.7c-.9-.6-1.9-.9-3.1-.9-1.2 0-2.2.4-3 1.2-.8.8-1.2 1.7-1.2 2.9s.4 2.2 1.2 2.9c.8.8 1.8 1.2 3.1 1.2s2.4-.3 3.3-1v1.7c-1 .7-2.1 1-3.4 1zM173.1 54.7h-14v-11h1.8v9.5h4.3v-9.5h1.8v9.5h4.3v-9.5h1.8v11zM184.2 54.7h-8.4v-11h8.2v1.6h-6.4V48h5.2v1.6h-5.2v3.5h6.6v1.6zM188 54.7h-1.8v-11h8.1v1.6H188v9.4zM205.4 53.3c-1.1 1.1-2.5 1.6-4.2 1.6-1.7 0-3.1-.5-4.2-1.6s-1.6-2.5-1.6-4.1c0-1.6.5-3 1.6-4 1.1-1.1 2.5-1.7 4.2-1.7 1.7 0 3.1.6 4.2 1.7s1.7 2.5 1.7 4-.6 3-1.7 4.1zm-7.1-1.2c.8.8 1.7 1.2 2.8 1.2 1.1 0 2.1-.4 2.8-1.2.8-.8 1.2-1.8 1.2-2.9 0-1.2-.4-2.2-1.2-2.9-.8-.8-1.7-1.2-2.8-1.2-1.1 0-2.1.4-2.8 1.2-.8.8-1.2 1.7-1.2 2.9.1 1.2.4 2.1 1.2 2.9zM223.4 53.3c-1.1 1.1-2.5 1.6-4.2 1.6-1.7 0-3.1-.5-4.2-1.6s-1.6-2.5-1.6-4.1c0-1.6.5-3 1.6-4 1.1-1.1 2.5-1.7 4.2-1.7 1.7 0 3.1.6 4.2 1.7s1.7 2.5 1.7 4-.6 3-1.7 4.1zm-7.1-1.2c.8.8 1.7 1.2 2.8 1.2 1.1 0 2.1-.4 2.8-1.2.8-.8 1.2-1.8 1.2-2.9 0-1.2-.4-2.2-1.2-2.9-.8-.8-1.7-1.2-2.8-1.2-1.1 0-2.1.4-2.8 1.2-.8.8-1.2 1.7-1.2 2.9.1 1.2.5 2.1 1.2 2.9zM232.2 54.7h-4.8v-11h8.1v1.6h-6.3v2.3h3.1c1.3 0 2.3.3 3.1 1 .7.6 1.2 1.5 1.2 2.6s-.4 1.9-1.2 2.6c-.8.6-1.9.9-3.2.9zm-3.1-5.5v3.9h2.9c.8 0 1.4-.2 1.9-.5.4-.4.7-.8.7-1.4 0-.6-.2-1.1-.7-1.5-.5-.4-1.1-.5-1.9-.5h-2.9zM240.3 54.7h-1.8v-11h4.9c1.2 0 2.2.3 2.8.9.7.6 1.1 1.4 1.1 2.3 0 .9-.4 1.7-1.1 2.4-.7.6-1.6.9-2.8.9h-3.2v4.5h.1zm0-9.5v3.3h3c.7 0 1.2-.2 1.6-.4.4-.2.6-.7.6-1.2s-.2-.9-.6-1.2c-.4-.3-.9-.4-1.6-.4l-3-.1zM249 54.7h-1.9l5-11.1h1.7l5 11.1H257l-1.3-2.7h-5.4l-1.3 2.7zm4-9l-2.1 4.6h4.2l-2.1-4.6zM264.3 54.9c-1.6 0-2.9-.3-4-.9v-1.7c.5.3 1.1.6 1.8.7.7.2 1.3.3 2 .3.9 0 1.7-.2 2.3-.5.6-.4.8-.8.8-1.4 0-.5-.3-.9-.8-1.3-.5-.3-1.2-.5-2.1-.5H263V48h1.6c.7 0 1.3-.2 1.6-.4.4-.3.6-.6.6-1.1 0-.5-.2-.8-.7-1.1-.4-.3-1.1-.4-1.8-.4-1.2 0-2.4.3-3.5.8v-1.6c1.1-.6 2.3-.8 3.6-.8 1.3 0 2.3.3 3 .8.8.5 1.2 1.3 1.2 2.2 0 .6-.2 1.1-.6 1.5-.4.4-.8.7-1.2.8.6.2 1.1.5 1.6 1s.7 1.1.7 1.8c0 1-.4 1.8-1.3 2.5-1 .6-2.1.9-3.5.9zM280.8 53.3c-1.1 1.1-2.5 1.6-4.2 1.6-1.7 0-3.1-.5-4.2-1.6s-1.6-2.5-1.6-4.1c0-1.6.5-3 1.6-4 1.1-1.1 2.5-1.7 4.2-1.7 1.7 0 3.1.6 4.2 1.7s1.7 2.5 1.7 4-.6 3-1.7 4.1zm-7.1-1.2c.8.8 1.7 1.2 2.8 1.2 1.1 0 2.1-.4 2.8-1.2.8-.8 1.2-1.8 1.2-2.9 0-1.2-.4-2.2-1.2-2.9-.8-.7-1.7-1.2-2.8-1.2-1.1 0-2.1.4-2.8 1.2-.8.8-1.2 1.7-1.2 2.9.1 1.2.5 2.1 1.2 2.9zM290.4 54.7h-5.6v-11h5.2c1.1 0 1.8.3 2.5.7.6.5.9 1.2.9 2 0 .5-.2 1-.4 1.4-.3.4-.6.7-1.1.8.7.1 1.3.5 1.7 1 .4.5.7 1.2.7 2 0 .9-.4 1.7-1.1 2.3-.7.5-1.7.8-2.8.8zm-3.9-9.5V48h3.1c.6 0 1.1-.1 1.4-.4.3-.3.5-.6.5-1.1 0-.5-.2-.8-.5-1.1-.3-.3-.8-.4-1.4-.4h-3.1v.2zm0 4.4v3.5h3.5c.7 0 1.3-.2 1.6-.5.4-.3.6-.7.6-1.3 0-.5-.2-.9-.6-1.3-.4-.3-.9-.4-1.6-.4h-3.5zM297.2 54.7h-1.9l5-11.1h1.7l5 11.1h-1.9l-1.3-2.7h-5.4l-1.2 2.7zm4-9l-2.1 4.6h4.2l-2.1-4.6zM310.7 54.7h-1.8v-11h1.8V48h6v-4.4h1.8v11h-1.8v-5.1h-6v5.2zM322.8 54.7h-1.5v-11h1.8v8.1l6.3-8.1h1.6v11h-1.8v-8.1l-6.4 8.1zM335 54.7h-2.2l3.7-4.8c-.8-.2-1.4-.5-1.9-1.1-.5-.5-.7-1.2-.7-1.9 0-.9.3-1.7 1-2.3.7-.6 1.6-.8 2.8-.8h5.2v11h-1.8V50h-2.7l-3.4 4.7zm2.8-6.2h3.4v-3.3h-3.4c-.6 0-1.2.2-1.5.4-.4.3-.5.7-.5 1.2s.2.9.5 1.2c.4.3.9.5 1.5.5zM106.4 73.8h-1.8v-11h5c1.2 0 2.2.3 2.8.9.7.6 1.1 1.4 1.1 2.3 0 .9-.4 1.7-1.1 2.4-.7.6-1.6.9-2.8.9h-3.2v4.5zm0-9.5v3.3h3c.7 0 1.2-.2 1.6-.4.4-.3.6-.7.6-1.2s-.2-.9-.6-1.2c-.4-.3-.9-.4-1.6-.4l-3-.1zM125.1 72.3c-1.1 1.1-2.5 1.6-4.2 1.6-1.7 0-3.1-.5-4.2-1.6s-1.6-2.5-1.6-4.1c0-1.6.5-3 1.6-4 1.1-1.1 2.5-1.7 4.2-1.7 1.7 0 3.1.6 4.2 1.7s1.7 2.5 1.7 4c0 1.6-.6 3-1.7 4.1zm-7-1.2c.8.8 1.7 1.2 2.8 1.2 1.1 0 2.1-.4 2.8-1.2.8-.8 1.2-1.8 1.2-2.9 0-1.1-.4-2.2-1.2-2.9-.8-.8-1.7-1.2-2.8-1.2-1.1 0-2.1.4-2.8 1.2-.8.8-1.2 1.7-1.2 2.9s.4 2.2 1.2 2.9zM134.8 74c-1.7 0-3.2-.5-4.3-1.6-1.2-1.1-1.7-2.5-1.7-4.1 0-1.7.6-3 1.7-4.1 1.2-1.1 2.6-1.6 4.3-1.6 1.2 0 2.2.3 3.1.7V65c-.9-.6-1.9-.9-3.1-.9-1.2 0-2.2.4-3 1.2-.8.8-1.2 1.7-1.2 2.9s.4 2.2 1.2 2.9c.8.8 1.8 1.2 3.1 1.2s2.4-.3 3.3-1V73c-1 .7-2.1 1-3.4 1zM145.7 74c-1.7 0-3.2-.5-4.3-1.6-1.2-1.1-1.7-2.5-1.7-4.1 0-1.7.6-3 1.7-4.1 1.2-1.1 2.6-1.6 4.3-1.6 1.2 0 2.2.3 3.1.7V65c-.9-.6-1.9-.9-3.1-.9-1.2 0-2.2.4-3 1.2-.8.8-1.2 1.7-1.2 2.9s.4 2.2 1.2 2.9c.8.8 1.8 1.2 3.1 1.2s2.4-.3 3.3-1V73c-1.1.7-2.2 1-3.4 1zM152.7 73.8h-1.5v-11h1.8v8.1l6.3-8.1h1.6v11h-1.8v-8.1l-6.4 8.1zM165.2 73.8h-1.5v-11h1.8v8.1l6.3-8.1h1.6v11h-1.8v-8.1l-6.4 8.1zm3.3-11.8c-.8 0-1.6-.3-2.1-.7-.5-.5-.8-1.1-.8-1.9h1.5c0 .4.1.7.4.9.3.3.6.4 1 .4s.8-.1 1-.4c.3-.3.4-.6.4-.9h1.5c0 .8-.3 1.4-.8 1.9s-1.2.7-2.1.7zM181.7 74c-1.7 0-3.2-.5-4.3-1.6-1.2-1.1-1.7-2.5-1.7-4.1 0-1.7.6-3 1.7-4.1 1.2-1.1 2.6-1.6 4.3-1.6 1.2 0 2.2.3 3.1.7V65c-.9-.6-1.9-.9-3.1-.9-1.2 0-2.2.4-3 1.2-.8.8-1.2 1.7-1.2 2.9s.4 2.2 1.2 2.9c.8.8 1.8 1.2 3.1 1.2s2.4-.3 3.3-1V73c-1 .7-2.1 1-3.4 1zM189.1 73.8h-1.8v-11h1.8v4.5l4.7-4.5h2.3l-5.3 5 6.2 6h-2.5l-5.4-5.3v5.3zM207.1 72.3c-1.1 1.1-2.5 1.6-4.2 1.6-1.7 0-3.1-.5-4.2-1.6s-1.6-2.5-1.6-4.1c0-1.6.5-3 1.6-4 1.1-1.1 2.5-1.7 4.2-1.7 1.7 0 3.1.6 4.2 1.7s1.7 2.5 1.7 4c-.1 1.6-.6 3-1.7 4.1zm-7.1-1.2c.8.8 1.7 1.2 2.8 1.2 1.1 0 2.1-.4 2.8-1.2.8-.8 1.2-1.8 1.2-2.9 0-1.1-.4-2.2-1.2-2.9-.8-.8-1.7-1.2-2.8-1.2-1.1 0-2.1.4-2.8 1.2-.8.8-1.2 1.7-1.2 2.9.1 1.2.4 2.2 1.2 2.9zM212.6 73.8H211v-11h1.8v8.1l6.3-8.1h1.6v11h-1.8v-8.1l-6.3 8.1zm3.2-11.8c-.8 0-1.6-.3-2.1-.7-.5-.5-.8-1.1-.8-1.9h1.5c0 .4.1.7.4.9.3.3.6.4 1 .4s.8-.1 1-.4c.3-.3.4-.6.4-.9h1.5c0 .8-.3 1.4-.8 1.9-.6.5-1.2.7-2.1.7zM234.8 74.1H233v-1.2c-1.8-.1-3.2-.5-4.2-1.4-.9-.9-1.4-2-1.4-3.3 0-.6.1-1.2.4-1.7.2-.6.6-1.1 1-1.5.4-.5 1.1-.8 1.8-1.1.7-.3 1.6-.4 2.5-.5v-1.1h1.8v1.1c.9 0 1.7.2 2.5.4.7.3 1.3.6 1.8 1.1.5.5.8.9 1 1.5.2.6.4 1.2.4 1.7s-.1 1.2-.4 1.7c-.3.5-.6 1.1-1 1.5-.5.5-1.1.8-1.8 1.1-.7.3-1.6.4-2.5.4l-.1 1.3zm-1.8-2.7v-6.5c-1.2 0-2.2.3-2.8.9-.6.6-.9 1.4-.9 2.3 0 .9.3 1.7.9 2.3.6.6 1.6.9 2.8 1zm1.8-6.5v6.5c1.3 0 2.2-.3 2.8-.9.6-.6.9-1.4.9-2.3 0-.9-.3-1.7-.9-2.3-.6-.7-1.6-1-2.8-1zM250.9 73.8h-8.4v-11h8.2v1.6h-6.4v2.8h5.2v1.6h-5.2v3.5h6.6v1.5zM254.1 76.1h-1.7v-3.9h1.1c.6-.9 1.1-1.9 1.3-3.1.3-1.2.4-2.8.4-4.8v-1.5h7.6v9.5h1.6v3.9h-1.7v-2.4H254l.1 2.3zm1.3-4h5.6v-7.9h-4.1c0 1.8-.1 3.4-.4 4.6-.1 1.4-.5 2.5-1.1 3.3zM274.7 73.8h-8.4v-11h8.2v1.6h-6.4v2.8h5.2v1.6h-5.2v3.5h6.6v1.5zM278.5 73.8h-1.8v-11h5c1.2 0 2.2.3 2.8.9.7.6 1.1 1.4 1.1 2.3 0 .9-.4 1.7-1.1 2.4-.7.6-1.6.9-2.8.9h-3.2v4.5zm0-9.5v3.3h3c.7 0 1.2-.2 1.6-.4.4-.3.6-.7.6-1.2s-.2-.9-.6-1.2c-.4-.3-.9-.4-1.6-.4l-3-.1zM287.2 73.8h-1.9l5-11.1h1.7l5 11.1h-1.9l-1.3-2.7h-5.4l-1.2 2.7zm4-9l-2.1 4.6h4.2l-2.1-4.6zM309.8 76.1h-1.7v-2.4h-9.2v-11h1.8v9.5h5.6v-9.5h1.8v9.5h1.6v3.9h.1zM313.2 73.8h-1.5v-11h1.8v8.1l6.3-8.1h1.6v11h-1.8v-8.1l-6.4 8.1zM325.7 73.8h-1.5v-11h1.8v8.1l6.3-8.1h1.6v11h-1.8v-8.1l-6.4 8.1z" fill="#58595B"/><path d="M67.5 71.6c-.3 0-.5.2-.5.5s.2.5.5.5.5-.2.5-.5c0-.2-.2-.5-.5-.5zM69.2 76.5c0 .3.2.5.5.5s.5-.2.5-.5-.2-.5-.5-.5-.5.2-.5.5zM67.5 76c-.3 0-.5.2-.5.5s.2.5.5.5.5-.2.5-.5-.2-.5-.5-.5zM71.4 76.5c0 .3.2.5.5.5s.5-.2.5-.5-.2-.5-.5-.5-.5.2-.5.5zM66.8 66.7l.1 1.3-1.1-.1v1.4l1.1-.2-.1 1.3h1.4l-.1-1.3 1.1.2v-1.4l-1.1.1.1-1.3h-1.4zM68.4 71.2v4.5h4.3c-.3-2.3-2.1-4.1-4.3-4.5zM67.5 73.8c-.3 0-.5.2-.5.5s.2.5.5.5.5-.2.5-.5-.2-.5-.5-.5zM69.3 79.5c-.1 0-.5 1.1-.1 1.9.2.4.6.6 1 .5.4-.1.5-.5.5-.7-.1-.9-.8-1.7-1.4-1.7zM65.7 79.5c-.6 0-1.3.8-1.3 1.7 0 .3.1.6.5.7.4.1.8-.1 1-.5.2-.8-.1-1.9-.2-1.9zM67.5 78.9c-.4 0-1.6 2.3-.7 3.4.2.2.4.3.7.3.3 0 .6-.1.7-.3.8-1.1-.3-3.4-.7-3.4z" fill="#13377D"/><path d="M62.2 76.5c0-.5.1-.9.1-.9h4.3v-4.5c-2.1.4-3.8 2-4.3 4.1-.1.2-.5.3-.8.2-1.6-.2-4.8-.8-4.8-1.5 0-1 .7-1.4 1.3-1.4.9 0 1.9.5 2.7-.7-2.9.1-.7-4.1-3.1-4.9.1 1.1 0 3-.4 4 0 0-.9-.9-1.8-1.3.1.8-.1 2.4-.4 3.2 0 0-1-1-2.1-1.3 1 1.4 1 3.5.7 4.7-.1.4.2.8.9.8 1.2-.1 5.2.1 6.9.8.5.2 1 .5 1.2.9.2.5.6 1.3 1.2 1.7.3-.9 1.3-1.9 2-1.8.2 0 .4.4.5.7.1-.3.6-1.2 1.1-1.2.5 0 1 .7 1.2 1.3.1-.4.3-.8.5-.8.7 0 1.6.6 1.9 1.7.3-.3 1.5-1.9 1.6-3H62.2v-.8z" fill="#13377D"/><path d="M64.8 76.5c0 .3.2.5.5.5s.5-.2.5-.5-.2-.5-.5-.5-.5.2-.5.5zM62.7 76.5c0 .3.2.5.5.5s.5-.2.5-.5-.2-.5-.5-.5-.5.2-.5.5zM21.3 78.7c-.2.2-.6 1.3-.4 2 .1.3.2.4.5.4s.4-.2.5-.5c.1-.7-.4-1.8-.6-1.9zM25 81.8c-.2.3-.5.4-.6.5.1.1.4.3.7.3.2 0 .4-.1.5-.2.3-.6 0-1.1-.1-1.3-.1.2-.2.5-.5.7zM23.6 80.4c.4-.4.5-.7.4-.9-.1-.3-1-1.2-2-2.3 0 .2-.1.4-.1.6.7 1 1 2 .8 2.9.1.1.1.1.2.1.2.2.5-.1.7-.4zM25 80.5c0-.2 0-.3-.1-.4h-.1c-.1 0-.2.2-.3.3-.1.1-.2.3-.4.5l-.5.5c-.2.1-.3.3-.3.4v.1c.1.1.1.1.2.1s.4-.1.9-.6.6-.7.6-.9zM18.4 75.2s-.1.1-.2.3c.2 0 .5 0 .7.1v-.7c-.2 0-.4.2-.5.3z" fill="#13377D"/><path d="M21.1 75.5s2.1 1.8 2.8 2.5c.2.2.4.2.6.1.1-.1.3-.1.5-.2 2.1-.7 5.5-.8 6.7-.8.8 0 1-.4.9-.8-.2-1.2-.3-3.3.7-4.7-1.1.4-2.1 1.3-2.1 1.3-.4-.7-.5-2.4-.4-3.2C29.8 70 29 71 29 71c-.4-1-.5-2.9-.4-4-2.4.8-.2 5.1-3.1 4.9.8 1.2 1.8.7 2.7.7.6 0 1.4.4 1.3 1.4-.1.7-4 1.5-5.6 1.5-1.1 0-1.9-.3-2.4-1.1-.3-.4-.5-.5-.8-.5-.4.1-.8.4-.8 1.4 0 .6.3 2 1 2 .4.1.4-1.1.2-1.8zM17.1 74.9h.3c-.3.4-.3.7-.2.8.2.2.3-.2.8-.7.5-.5.8-.7.7-.9-.1-.1-.4-.1-.8.2 0-.1.1-.2 0-.3-.2-.5-.9-1.1-1.4-1.1h-.2c.2-.3.1-.5 0-.7-.1-.1-.2 0-.4.2 0-.1 0-.3-.1-.5-.6-1-4-4.2-4.8-4.5-.5-.2-.6.1-.6.1s-.3.2-.1.6c.3.8 3.6 4.1 4.5 4.7.2.1.4.2.5.1-.2.2-.3.2-.1.4.1.1.3.2.6 0v.2c.2.4.8 1.2 1.3 1.4zM19.5 77.3c0-.3-.6-.9-1.4-.9-1.1 0-1.6.7-1.6 1.1 0 .7.7.8.9.8.7 0 2-.8 2.1-1zM18.5 79c-.3.4-.4.8-.3 1.1.1.4.5.6.9.6s.8-.2 1-.5c.4-.7.4-2.2.3-2.3-.4 0-1.4.4-1.9 1.1zM8.7 63.4c-.3-.3-1 .2-1.4-.1.2-1 .9 0 1.5-.6.3-.3.1-.7 0-.8-.3.3-.7.2-.8 0 .7-1.8-.7-3.7-2.1-3.5.3.4.4 1.7.2 2 .5.4.2 1.3-.4 1-.4-.2-1.1-1.2-.3-1.8 0-.3-.5-.3-.9.3.3-1.1-1.8-.8-2.2-.5-.2.5-.5 2.6.6 2.2-.6.5-.5 1-.3 1 .7-.8 1.6-.2 1.8.2.3.6-.6 1-1 .5-.3.1-1.6.1-1.9-.2-.2 1.4 1.8 2.9 3.5 2.1.2 0 .3.5 0 .8.1.2.6.3.8 0 .7-.7-.3-1.4.6-1.6.2.4-.2 1.1.1 1.4.5.5 1.1-.5 1.8-.5 0-.8.9-1.4.4-1.9zm-5.2-2.3s-.3-.2.1-.7c.4-.4.6-.1.6-.1s.4.8.5 1.2c-.4 0-1.2-.4-1.2-.4zm3.2 2.5c-.2 0-.7.5-.9.2l-1.1-1.1.6-.6.6-.6L7 62.6c.1.3-.3.8-.3 1zM9 65.4c-.1 0-.2 0-.3.1-.1.1-.1.3-.1.5s.2.4.4.6c.1.3.4.4.6.4.1 0 .2 0 .3-.1.2-.2.1-.8-.2-1.1-.2-.2-.5-.4-.7-.4z" fill="#13377D"/><path d="M5.8 62.1l-.3.3-.3.3s.6.8 1.1.5c.3-.5-.5-1.1-.5-1.1zM64.2 59.1c0 .2-.8.6-1.4-.5-.6-.1-1.2-.3-1.6-.5.7 1.4 1.3 2.6 2.3 3.2 1.5.9 3.8.7 4.5-.3-1.3-.7-2.8-2.5-3.6-4.2-.2.4-.5 1.1-.7 1.6.1.2.3.5.5.7zM78.1 37.2c1.6-.7 3.9-2.3 5-3.3.1.2.5 1.1-.7 2.1-.9.7-2.7 1.6-4 2.1-.6.9-1.8 1.9-3.4 3 3.2-.5 7-1.8 8.9-3.6 3.5-3.5 1.7-7.7 1.2-8.7-2.3 2.9-6.7 5.9-10.8 7.5 1.4.2 2.8.5 3.8.9zM75.5 30.8c2.1-1.7 4.3-5.1 4.7-6.3.5.3.7 1.3.1 2.4-1.1 1.9-3.1 3.6-4.8 5-.1 1.2-.6 2.7-1.2 3.8 2.5-1.7 5.4-4.2 6.7-5.9 1.7-2.2 2.4-4.4 2.1-6.6.1-2.5-1.7-5-2.4-5.6-.5 2.7-3.2 7.3-5.6 9.9.2.9.4 2.2.4 3.3zM73.9 46.6c.5.6 1 1.3 1.4 1.9 1.9.4 4.2.3 4.2.3s-.1 1-1.4 1.1c-.6 0-2.4-.3-3.1-.5-.3.1-1.7.5-3.1.7 2 .7 4.9 1.4 6.7 1.4h.5c2.9-.3 4.4-3 4.5-4.5-.9.2-2.4.3-3.9.3-1.4 0-3.9-.1-5.8-.7zM86 39c-2.6 1.4-7.2 2.8-10.9 2.8.9.6 1.8 1.2 2.4 1.8 1.5-.1 3.6-.6 4.8-1 0 .2 0 1.2-1.4 1.6-1 .3-2.4.3-3.5.3-.9.6-2.2 1.1-3.3 1.5 1 .1 2.3.2 3.4.2 1.9 0 3.7-.2 4.8-.6 1-.3 4.3-1.7 3.7-6.6zM72 52.8c1.1.5 2.3.9 3.3 1 0 0-.2 1-1.7.8-.9-.1-1.9-.8-2.1-.9-.7.1-2.1.1-2.6 0 1.7 1.2 4.3 2.6 6.5 2.8h.3c2.3 0 4.1-2.3 4.6-3.4-2.3 0-6.3-1-8.7-2.3.1.4.3 1.2.4 2zM68 55.9c.6.7 1.6 1.1 1.6 1.1s-.3.5-.9.5c-.2 0-.4-.1-.6-.2-.4-.2-1-.9-1-.9-.8-.1-1.5-.2-2.2-.4 1.2 1.5 3.2 3.4 5.4 3.9.3.1.6.1 1 .1 1.9 0 3.5-1.4 3.9-2.3-2.2-.3-5.4-2-7-3.6 0 .6-.1 1.3-.2 1.8zM53.7 80.4c1.1 0 1.8-.4 2.3-1.5-1.5.7-3.1.3-6.1-.6 0 0-1.1.5-1.8.6 1.8.5 4.4 1.4 4.8 2.4.2.8-.3 1-.3 1-1-1.2-2.2-1.9-4.8-2.7 0 .5-.1.8-.1.8s-.5.1-1.7-.1c1 .8 3.4 2.9 3.7 5.1.2 1.5-.9 1.6-.9 1.6-.1-2.3-1.1-3.7-3.3-6 0 0-.4.5-.8.8 0 0-.8-.1-1.4-.6.3 3 .4 10.2.2 11.3-.1.8-.6 1.2-.6 1.2s-.5-.3-.6-1.2c-.2-1.2 0-8.4.2-11.3-.7.4-1.4.6-1.4.6-.5-.3-.8-.8-.8-.8-2.1 2.3-3.1 3.8-3.3 6 0 0-1-.1-.9-1.6.3-2.2 2.7-4.3 3.7-5.1-1.1.2-1.7.1-1.7.1s-.1-.3-.1-.8c-2.6.8-3.7 1.5-4.8 2.7 0 0-.5-.1-.3-1 .4-1 3-1.8 4.8-2.4-.6-.1-1.8-.6-1.8-.6-2.9.9-4.6 1.3-6.1.6.4 1.1 1.2 1.5 2.3 1.5-1.4.5-2.7 1.9-3.1 3.3 1 3.7 4.2 4.8 4.2 4.8-.8-1.8-.5-5.3 4.3-7.7-2.9 2.9-4.1 5.6-3.3 8.1.7 2.3 3.1 3.2 4.8 3.3-1.2-3.8-.7-7.3 1.9-10-1.1 3-2.7 12.3 1.8 13.8 4.5-1.5 2.9-10.8 1.8-13.8 2.6 2.8 3.1 6.2 1.9 10 1.8 0 4.1-1 4.8-3.3.8-2.5-.3-5.2-3.3-8.1 4.8 2.4 5.1 6 4.3 7.7 0 0 3.2-1.1 4.2-4.8 0-1.4-1.4-2.7-2.7-3.3zM22.7 61.3c1-.6 1.6-1.8 2.3-3.2-.4.2-1 .4-1.6.5-.6 1.1-1.4.7-1.4.5.2-.2.4-.5.5-.7-.2-.5-.5-1.2-.7-1.6-.8 1.8-2.4 3.5-3.6 4.2.7 1 3 1.2 4.5.3zM11.1 41.1c-1.7-1.1-2.8-2.1-3.4-3-1.4-.5-3.2-1.4-4-2.1-1.2-1-.8-1.9-.7-2.1 1 1.1 3.3 2.6 5 3.3 1-.4 2.4-.7 3.8-.9-4.1-1.5-8.5-4.6-10.8-7.4-.5.9-2.4 5.2 1.2 8.7 1.8 1.7 5.7 3 8.9 3.5zM11.8 35.6c-.6-1.1-1.1-2.5-1.2-3.8-1.7-1.3-3.6-3-4.8-5-.6-1.1-.4-2.1.1-2.4.4 1.2 2.6 4.6 4.7 6.3 0-1.1.2-2.4.5-3.3-2.4-2.6-5.2-7.2-5.6-9.9-.7.6-2.5 3.1-2.4 5.6-.3 2.2.4 4.4 2.1 6.6 1.2 1.7 4.1 4.3 6.6 5.9zM10.8 48.5c.3-.6.9-1.3 1.4-1.9-1.9.5-4.4.6-5.7.6-1.6 0-3.1-.1-3.9-.3.1 1.6 1.6 4.3 4.5 4.5h.5c1.8 0 4.7-.7 6.7-1.4-1.4-.2-2.8-.5-3.1-.7-.8.4-2.6.7-3.2.6-1.3-.1-1.4-1.1-1.4-1.1s2.3.1 4.2-.3zM3.8 45.7c1.1.4 2.8.6 4.8.6 1.2 0 2.4-.1 3.4-.2-1.1-.4-2.4-.9-3.3-1.5-1.1 0-2.6-.1-3.5-.3-1.4-.4-1.4-1.4-1.4-1.6 1.2.5 3.3 1 4.8 1 .6-.5 1.4-1.2 2.4-1.8-3.6 0-8.3-1.4-10.9-2.8-.6 4.8 2.7 6.2 3.7 6.6zM10.5 56.4h.3c2.2-.2 4.8-1.6 6.5-2.8-.5.1-2 .1-2.6 0-.2.2-1.3.8-2.1.9-1.6.2-1.7-.8-1.7-.8 1-.1 2.2-.5 3.3-1 .1-.8.3-1.6.5-2.1C12.2 52 8.2 53 5.9 53c.5 1.1 2.3 3.4 4.6 3.4zM14.8 60c.3 0 .7 0 1-.1 2.1-.5 4.2-2.4 5.4-3.9-.7.2-1.4.4-2.2.4 0 0-.5.6-1 .9-.2.1-.4.2-.6.2-.6 0-.9-.5-.9-.5s1-.5 1.6-1.1c-.1-.5-.2-1.2-.2-1.8-1.7 1.7-4.8 3.3-7 3.6.4.9 1.9 2.3 3.9 2.3zM42.2 5.3c0 .5.4.8.8.8s.8-.4.8-.8c0-.5-.4-.8-.8-.8-.4-.1-.8.3-.8.8zM42.5 3.5h1.1l-.1-1.4 1.2.2V1.2l-1.2.1.1-1.3h-1.1l.1 1.3-1.2-.1v1.1l1.2-.2-.1 1.4zM38.6 16.7c.1 0 .3.1.4.1h8c.2 0 .3 0 .4-.1.3-.1.4-.3.5-.6h-9.8c.1.4.3.5.5.6zM47.4 15.5c.1 0 .1-.1.1-.1v-.6c0-.1-.1-.1-.1-.1h-8.7c-.1 0-.1.1-.1.1v.6c0 .1.1.1.1.1h8.7zM48.3 14c.2-.3 1.3-2.4 1.3-4.6 0-2-2.5-3.1-3.9-3.1-.2 2.8-1.3 7.2-2.7 7.2-1.3 0-2.5-4.4-2.7-7.2-1.5 0-3.9 1.1-3.9 3.1 0 2.2 1.1 4.4 1.3 4.6h10.6z" fill="#13377D"/><path d="M43 12.1c.7 0 1.5-2.1 1.8-4.2 0-.4-.7-1-1.8-1.1-1.1 0-1.8.6-1.8 1.1.3 1.9 1.2 4.2 1.8 4.2zM55.7 44.9c0-.3-.2-.5-.5-.5H30.9c-.3 0-.5.2-.5.5V61.8s0 .9.4 1.9c.5 1.2 2.6 3.2 5.2 4.6 3.7 1.9 5.9 3.4 7 4.3 1.1-.9 3.3-2.4 7-4.3 2.7-1.4 4.7-3.4 5.2-4.6.5-1.1.4-1.9.4-1.9l.1-16.9zM47.5 51v.1c.3 1.2.6 2.5.7 3.7 1 .8 1.9 1.6 2.7 2.4 1.5-1.7 2.3-3.3 2.3-4.6-.7 0-1.3-.6-1.3-1.3 0-.3.1-.5.2-.7-.7-.3-1.5-.4-2.2-.4-.6 0-1.2.1-1.9.2h-.1l-.2.1.1-.1c.1-.2.1-.3.2-.5 2-.4 3.6-.2 4.6.4.2-.1.4-.2.6-.2.7 0 1.3.6 1.3 1.3 0 .5-.3.9-.7 1.1 0 1.4-.8 3.2-2.5 5.2l.3.3.2.2v.1l-.3.3h-.1-.1c-.1-.1-.1-.1-.1-.2-.1-.1-.1-.2-.2-.3l-.6.6-.2.3c-.3.2-.6.3-.8.2h-.1l.1-.1c.5-.4.9-.9 1.3-1.2-.6-.7-1.4-1.4-2.2-2.1.1.7.1 1.4.1 2.1 0 .6 0 1.3-.1 2-.1.1-.3.2-.4.3l-.1.1v-.1c.1-.8.1-1.6.1-2.3V57c0-.5-.1-1.9-.2-2.8-.1-.8-.3-1.6-.5-2.4v-.1l.3-.3-.2-.4zm-8.2-1.8c1-2.4 2.4-3.7 3.8-3.7s2.8 1.3 3.8 3.7v.1h-.1c-.1 0-.2.1-.4.2h-.1v-.1c-.9-2.1-2.1-3.3-3.3-3.3-1.2 0-2.4 1.2-3.3 3.3v.1h-.1c-.1-.2-.3-.2-.3-.3zm-.4.6c.3.2 1.2.7 2.2.4.9-.3 1.9-.3 1.9-.3s1.1 0 1.9.3c1 .3 1.9-.2 2.2-.4.1 0 .1 0 .1.1-.1.4-.4 1.4-1.9 1.8-1.4.3-2.1 1.9-2.3 2.6 0 .1-.1.1-.2 0-.2-.7-.9-2.3-2.3-2.6-1.5-.3-1.8-1.4-1.9-1.8.2-.1.3-.1.3-.1zm2.4 4c.2 0 .5-.1.7-.2.1.2.2.5.3.7-.3.2-.6.3-1 .3-1.1 0-1.9-.9-1.9-1.9 0-.3.1-.5.2-.7.2.1.4.2.7.3-.1.1-.1.3-.1.4-.1.6.5 1.1 1.1 1.1zm-.5-1.2v-.2c.3.1.6.4.8.6-.1.1-.2.1-.3.1-.3 0-.5-.2-.5-.5zm.5 2.6c.4 0 .9-.1 1.3-.4.1.1.3.5.4.5.2 0 .3-.4.4-.5.4.2.9.4 1.3.4.7 0 1.3-.3 1.8-.7v.1c.2.8.3 1.8.2 2.2 0 .4-.2.8-.3 1.2-.2.5-.3.9-.3.9s0 .1-.1.3c-.1.4-.4 1.1-.8 1.8-.8-.5-1.6-.7-2.6-.7-.9 0-1.7.2-2.4.6-.3-.7-.6-1.3-.7-1.6-.1-.2-.1-.3-.1-.3s-.2-.4-.4-1c-.1-.3-.2-.7-.2-1.1 0-.3-.1-1.3.2-2.2 0-.1.1-.2.1-.3.7.4 1.5.8 2.2.8zm3.5-1.4c.7 0 1.2-.5 1.2-1.2 0-.2 0-.3-.1-.4.2-.1.5-.2.7-.3.1.2.2.5.2.7 0 1.1-.9 1.9-1.9 1.9-.4 0-.7-.1-1-.3.1-.2.2-.4.3-.7.1.2.4.3.6.3zm-.3-.8c.2-.3.5-.5.8-.6v.2c0 .3-.2.5-.5.5-.1 0-.2 0-.3-.1zm-11.6-2.8c.3 0 .5.1.7.2.7-.4 1.5-.6 2.6-.6.6 0 1.2.1 1.9.2h.1c0 .1.1.3.2.5l.1.1-.2-.1h-.2c-.6-.1-1.2-.2-1.8-.2-.7 0-1.6.1-2.2.5.1.2.2.4.2.7 0 .7-.6 1.3-1.3 1.3 0 1.2.8 2.8 2.3 4.6.8-.8 1.7-1.7 2.7-2.4.1-1.2.4-2.5.7-3.7v-.1l.1.1.3.3.1.1v.1c-.2.8-.4 1.5-.5 2.3v.1c-.1.6-.2 1.4-.2 2.2 0 .6-.1 1.1-.1 1.5 0 .6 0 1.2.1 2v.1h-.1c-.2-.1-.3-.1-.4-.1h-.1v-.1c0-.5-.1-1.2-.1-1.9s0-1.4.1-2.1c-.8.7-1.6 1.4-2.2 2.1.5.6 1.2 1.2 2 1.9l.1.1h-.1c-.2.1-.5.1-.7 0-.6-.6-1.1-1-1.6-1.5-.1.1-.2.2-.2.3l-.1.1c-.1 0-.2.1-.4.2l-.1-.1s-.1 0-.1-.1h-.1v-.1c.2-.3.4-.5.6-.7-1.7-1.9-2.5-3.7-2.5-5.1-.4-.2-.7-.6-.7-1.1-.2-1 .4-1.6 1.1-1.6zm14.2 15.5c-.7 2-1.7 3.4-2.8 4-.1.6-.6 1.1-1.2 1.1s-1.1-.5-1.2-1.1c-1.1-.6-2.1-1.9-2.8-3.9v-.1l.6-.2v.1c.6 1.7 1.4 2.9 2.3 3.5.2-.5.6-.9 1.2-.9s1 .4 1.2.8c.9-.6 1.7-1.8 2.3-3.4v-.1h.1c0 .1.1.1.3.2zm-5.1-.1c0-.4.1-1.5.3-1.9.2-.1.5-.2.8-.2.3 0 .6.1.9.3.1.4.3 1.4.3 1.8 0 .4-1 .7-1.1.8-.3-.1-1.2-.3-1.2-.8zm12.8-4c-.1.1-.2.2-.3.2-.1 0-.2.1-.4.1H54c-.2 0-.4 0-.5-.1-.1 0-.1-.1-.2-.1-.3 0-1 .2-1.2.3.1 0 1 .1 1.6.6.3.2.9.3 1.1.3 0 .1-1 .8-2.9.4l-.5-.1c-.9-.2-1.7-.3-2.6-.3.1 0 .2.1.2.1.2.1.5.2.7.3 0 0 .1 0 .1.1h.1c.1 0 .2 0 .2.1.1 0 .2.1.3.1.1.1.3.2.3.3 0 .1.1.1.1.2 0 .2 0 .3-.1.5-.3.4-.7.4-1.1 0l-.1-.1c-.1-.1-.2-.2-.3-.4V64h-.1c-.2-.1-.3-.3-.5-.3-.3-.1-.7-.2-1-.3h-.3c.3.2.6.4.7.6v.1c.2.3.2.6.3.9.3.6.4.7.7.9-.3.1-1.8.1-2.5-1 0 0-.1-.1-.1-.2-.2-.4-.3-.8-.4-1.1-.1-.3.1-.6-.1-.7-.2-.1-.3 0-.3 0l-.1.1v.1c0 .1-.1.1-.1.1v.1s0 .1-.1.1H45h-.1s-.1 0-.1.1c-.1 0-.2.1-.3.1-.1 0-.2-.1-.2-.2v-.2h-.2c-.1 0-.1 0-.2-.1v-.2-.1c-.1.1-.1.1-.2.1h-.2c-.1 0-.1-.1-.1-.2v-.1-.1h-.2c-.1 0-.3-.1-.4-.1h-.1c-.1 0-.3.1-.4.1h-.2v-.1-.1l.1-.1v-.1H42v.1h-.1v.2c0 .1 0 .2-.1.2-.1.1-.1.1-.2 0 0 0-.1 0-.1-.1 0 0-.1 0-.1-.1 0 0 0 .1.1.1v.2c-.1.1-.1.1-.2.1h-.2c0 .1.1.1 0 .2 0 .1-.1.1-.2.1h-.2-.2l-.1-.1h-.2s-.1 0-.1-.1l-.1-.1v-.1c-.2-.2-.5.5-.5.5-.9 1.9-3.1 2.3-3.1 2.2 0 0 .5-.2.7-.9.1-.4.1-.5.3-.9 0-.1.1-.1.1-.2.1-.2.4-.3.6-.5h-.3c-.3.1-.6.1-1 .3-.2.1-.3.2-.5.3h-.1v.1c0 .1-.1.2-.2.4l-.1.1c-.4.4-.7.4-1.1 0l-.1-.1c-.1-.1-.1-.3 0-.4 0-.1.1-.2.2-.3.1-.1.2-.1.3-.2.1-.1.2-.1.3-.1.1 0 .1 0 .2-.1h.2s0-.1.1-.1.2-.1.3-.1c.1 0 .2-.1.3-.1 0 0 .1 0 .2-.1-.8 0-1.6.1-2.5.3-.1 0-.3.1-.5.1-1 .2-2.9-.3-2.9-.4 0-.1.5-.1 1-.4.4-.2.6-.4.9-.5.5.4 1.1.4 1.2.4-.2-.1-1.1-.2-1.4-.3 0 0-.1.1-.2.1-.2.1-.4.1-.6.1-.1 0-.3 0-.4-.1-.1 0-.2-.1-.3-.2-.1-.1-.1-.2-.1-.5.1-.4.5-.6 1-.5.3.1.5.2.6.3l.1.1c.3 0 .7.2 1.1.3.4.2.7.3.9.3-.1 0-.2-.1-.3-.1-.1 0-.2-.1-.2-.1-.1-.1-.2-.1-.3-.2-.6-.3-1.2-.6-1.6-1-.3-.4-.4-.6-.5-1-.1-.9-.5-1.3-.5-1.4.1-.1 1.5.6 2 1.1.3.4.4.7.5 1v.1c.1.3.4.6.9.9.1 0 .1.1.2.1-.1-.2-.2-.3-.3-.5v-.1l-.1-.1s-.1-.1-.1-.2c-.1-.1-.1-.2-.2-.3-.1-.3-.1-.6 0-.7.1-.1.2-.2.4-.3.4-.1.7.1.8.7V60.3c.2.6.7 1.1 1.3 1.5-.7-.6-1.1-2-1-2 .1-.1.7.3 1.3.6.3.1.6.3.9.5.2.1.4.3.5.4.2.1.3.3.4.4l.3.3.2.2c.2.1.5 0 .5 0 .1 0 .2 0 .3-.1l.1-.1c.1-.1.2-.1.3-.1v-.1c0-.2.1-.3.3-.4 0 0 .1 0 .1-.1H41.2c0-.1.1-.1.2-.2.2-.1.5-.1.7.1.1.1.1.2.2.3v.5H42.9c.1 0 .2 0 .3.1.1 0 .2-.1.3-.1H43.8v-.3c0-.1 0-.2.1-.3 0 0 0-.1.1-.1l.1-.1c.2-.1.4-.1.6 0 .1 0 .1.1.2.2h.4c.2.1.3.2.3.4h.2s.5 0 .6.1h.5l.2-.2.4-.4c.2-.1.3-.3.5-.4.3-.2.7-.3 1-.4 1-.4 1.1-1 1.2-1 .1.1-.2 1.7-.9 2.3.5-.4 1-.9 1.3-1.5v-.2-.3-.3c.2-.5.4-.8.8-.7.2.1.3.2.4.3.1.2.1.4 0 .7 0 .1-.1.2-.2.3l-.2.2-.1.1v.1c-.1.2-.2.3-.4.5l.2-.2c.5-.4.8-.7.9-1 .1-.3.2-.6.5-1 .5-.5.6-.7 1.1-1 .1-.1.8-.2.9-.2.1.1-.5.3-.7 1.3-.1.3-.2.8-.5 1.2-.4.5-.8.6-1.3.9l-.1.1c-.1.1-.2.1-.4.2s-.3.2-.4.2c.3-.1.6-.2 1-.3.3-.2.7-.3 1.1-.3 0 0 0-.1.1-.1.1-.1.3-.2.6-.3.5-.2.9 0 1 .5.1.3 0 .5-.1.6z" fill="#13377D"/><path d="M72.3 41.5c1.5-.7 4-2.4 5-3.6-1.4-.5-4.2-.8-5.8-.8 3.3-2.3 3.4-7.1 2.5-10.6-.8 2.8-2.8 5.1-4.1 6.5.1 1.4-.3 3.8-1.1 5.2 1.1.4 2.4 1 3.3 1.7-.6.8-1.9 1.9-2.7 2.6.7.7 1.8 2 2.4 2.8-.8.6-2.4 1.2-3.3 1.5.4.9 1 2.4 1.2 3.5-1 .2-2.3.3-3.7.3.1 1-.1 2.6-.3 3.6-1.3-.1-2.8-.6-3.5-1-.4 1.4-1.3 2.8-1.3 2.9-1.2-1.4-2.4-1.9-3.5-1.9v-.9c1.1 0 2.3.4 3.2 1.3.4-.7.8-2 1-2.8.8.4 2.1.9 3.2 1.1.1-1 .2-2.3.1-3.3 1.1.1 2.3.1 3.6-.1-.2-.9-1-2.4-1.5-3.2 1.1-.3 2.5-.9 3.2-1.3-.6-.8-1.6-1.9-2.3-2.6.8-.6 2.1-1.6 2.6-2.2-.9-.6-2.1-1.2-3.1-1.6 1.4-1.9 1.7-5.8 1.4-7.6-1.2 4.1-4.8 7.1-7 8.5-.1.1-.2.2-.3.2-.1.1-.5.6-.3 1.2 0 .2.1.3.1.5.2.8.2 2-1 3.1-1 .9-2.2 1-2.9.9v-2.2c0-.3-.2-.5-.5-.5h-1.5l-.7-.7h1.5c.8-.1 1.7-.5 1.7-.5s-.9 0-1.3-.1c-.5.1-1.6-.4-2.5-1.4-.3-.4-.6-.8-.8-1.2-.8-.7-1.7-1.6-2.3-2.9-.4-.9-.6-2.2-.7-3-.3.2-.6.6-1 1.1-.7.9-1 2.2-1 2.2l-.3 1-.5-.9s-.7-1.2-.8-2.7c0-.7 0-1.3.1-1.8-.2.1-.5.3-.8.5-1.2.9-1.9 1.8-1.9 1.8-.6.8-1 1.5-1.1 1.8-.1-.4-.5-1-1.1-1.8 0 0-.6-1-1.9-1.8-.3-.2-.6-.4-.8-.5.1.5.1 1.2.1 1.8-.1 1.5-.8 2.6-.8 2.7l-.5.8-.3-1s-.4-1.3-1-2.2c-.4-.5-.7-.9-1-1.1-.1.8-.3 2.2-.7 3-.6 1.3-1.4 2.3-2.3 2.9-.2.4-.5.8-.8 1.2-.9 1-2 1.5-2.5 1.6-.4.1-1.3.1-1.3.1s.9.4 1.7.5c.8.1 1.5 0 1.5 0l-.7.7h-1.5c-.3 0-.5.2-.5.5v2.2c-.7.1-2 0-2.9-.9-1.1-1.1-1.2-2.3-1-3.1.1-.1.1-.3.1-.5.2-.6-.2-1.1-.3-1.2-.1-.1-.2-.2-.3-.2-2.2-1.4-5.7-4.4-7-8.5-.3 1.8.1 5.6 1.4 7.6-1 .4-2.3 1-3.1 1.6.5.6 1.8 1.7 2.6 2.2-.7.6-1.8 1.8-2.3 2.6.7.4 2.1 1 3.2 1.3-.5.8-1.3 2.3-1.5 3.2 1.2.2 2.5.2 3.6.1-.1 1 0 2.4.1 3.3 1.1-.2 2.4-.6 3.2-1.1.2.7.6 2.1 1 2.8.9-.9 2.1-1.3 3.2-1.3v.9c-1.1 0-2.3.5-3.5 1.9 0-.1-.9-1.5-1.3-2.9-.7.3-2.2.9-3.5 1-.2-1-.3-2.6-.3-3.6-1.4 0-2.7-.1-3.7-.3.2-1.1.8-2.6 1.2-3.5-.9-.3-2.5-1-3.3-1.5.5-.8 1.7-2.1 2.4-2.8-.8-.6-2.1-1.8-2.7-2.6.9-.7 2.2-1.3 3.3-1.7-.8-1.5-1.2-3.9-1.1-5.2-1.4-1.4-3.4-3.7-4.1-6.5-1 3.5-.8 8.4 2.5 10.6-1.6 0-4.4.4-5.8.8 1 1.2 3.5 2.8 5 3.6-1.2.4-3.3 1.6-4.2 2.4 1.1.7 3.6 1.5 4.8 1.8-.7.6-2.1 2.2-2.6 3 1 .3 3 .6 4.3.6-.4.9-.9 2.4-1 3.3.6.1 2.7 0 3.8-.3-.1.9-.1 2.4.1 3.1 1-.1 2.5-.6 3.2-.8.2.8.9 2.4 1.2 2.8.5-.1 1-.2 1.5-.4 1.4-.5 2.9.1 3.5 1.4 1 2.3.6 5-1.3 4.5-2.2.4-.7 3.2-2 4.1 1.7 1.2 2.2-1.6 4.4-1.1-.2 1-.2 2.9 0 3.7.7-.5 1.7-.9 2.3-1-.2.6-.3 2-.1 2.9.4-.3 3.3-1.1 3.3-1.1s-1.1 2.2-.4 4.4c.4.3 3-1 3-1.7.1.9-1 2.9-2.7 3.3 1.8 1.8 3.4 1.7 3.6 1.7.3 0 .5 0 .7-.2-.1.5-.2 1.2-.1 1.6h.3c.5 0 .9-.1 1.2-.2.1.5.3 1 .6 1.4l.2.2c.4 0 1.4-.5 1.6-.8.2.3 1.2.8 1.6.8.1-.1.2-.1.2-.2.4-.4.6-1 .6-1.4.4.2.8.2 1.2.2h.3c.1-.4.1-1.1-.1-1.6.2.1.5.2.7.2.2 0 1.8.1 3.6-1.7-1.7-.4-2.8-2.4-2.7-3.3 0 .8 2.6 2 3 1.7.7-2.2-.4-4.4-.4-4.4s2.8.7 3.3 1.1c.2-.9.1-2.3-.1-2.9.6 0 1.6.5 2.3 1 .2-.8.2-2.6 0-3.7 2.1-.5 2.6 2.3 4.4 1.1-1.2-.9.3-3.7-2-4.1-1.9.6-2.3-2.2-1.3-4.5.6-1.3 2.2-1.9 3.5-1.4.5.2 1 .3 1.5.4.2-.4 1-2 1.2-2.8.7.3 2.2.7 3.2.8.1-.7.2-2.2.1-3.1 1 .2 3.2.3 3.8.3-.1-1-.6-2.5-1-3.3 1.3-.1 3.3-.3 4.3-.6-.5-.9-1.9-2.5-2.6-3 1.2-.3 3.7-1.1 4.8-1.8-.7-.9-2.8-2.1-4-2.5zM56.1 64c-.1.2-.2.3-.3.5 0 .1-.1.1-.1.2-.1.1-.2.2-.3.4l-.2.2c-.1.2-.3.3-.4.5l-.3.3-.3.3-.4.4-.2.2c-.3.3-.7.6-1.1.8-.5.4-1 .7-1.6 1l-.6.3c-4.5 2.3-6.7 4.1-7.4 4.6h-.1c-.7-.6-2.9-2.3-7.4-4.6l-.6-.3c-.6-.3-1.1-.6-1.6-1-.4-.3-.7-.6-1.1-.8-.1-.1-.2-.1-.2-.2-.1-.1-.3-.2-.4-.4l-.3-.3-.3-.3c-.2-.2-.3-.3-.4-.5l-.2-.2c-.1-.1-.2-.2-.3-.4 0-.1-.1-.1-.1-.2-.1-.2-.2-.3-.3-.5-.6-1.3-.5-2.4-.5-2.4V44.1c0-.3.2-.5.5-.5H56c.3 0 .5.2.5.5v17.5c.1 0 .2 1.1-.4 2.4zM55.5 16c.4 0 .6-.3.6-.7 0-.4-.3-.7-.6-.7-.4 0-.6.3-.6.7 0 .4.3.7.6.7zM55.5 19.7c.4 0 .8-1.7.8-2.5 0-.5-.4-.8-.8-.8s-.8.3-.8.8c0 .8.4 2.5.8 2.5zM55.1 13.6h.9l-.2-1.1 1.1.1v-.9l-1.1.2.2-1.1h-.9l.1 1.1-1.1-.2v.9l1.1-.1-.1 1.1z" fill="#13377D"/><path d="M51.6 21.7c.3.1.6.1.9.2h1.3c.8 0 1.6-.2 2.4-.4.8-.2 1.6-.4 2.5-.4h.6c.2-.9.5-1.9.5-2.5 0-1.2-.7-2.5-3-2.9 0 1.5-.7 5-1.5 5h-.1c-.8 0-1.5-3.5-1.5-5-2.3.4-3 1.7-3 2.9 0 .7.3 2 .6 2.9.3.1.3.1.3.2zM63.6 15.4s-.6-1.6.4-2.1c1.1-.4-.4-.2.4-2.4.9-2.6 2.9-2 2.9-2-1.4-1.1-2.5-1-3.3-.4-.5.4-1.2 1.2-1.7 2.8-.4 2 .3 3.9 1.3 4.1z" fill="#13377D"/><path d="M68.8 11.5c.1 3.3 5.6 4.7 5.6 4.7s-3.2-2.3-2.6-4c0 0 2.1.9 4.5.5-5.1-1.1-3.4-2.7-4.7-4-1.3-1.4-3.3-1.5-3.8-1.6-1.3-.1-1.4-.1-2.9.3 3.5.1 3.9 1.9 3.9 4.1zM68.1 17.7c.7-2.6-.6-3.8-.6-3.8-.4-.5-2.5-.4-3.3.1 0 0 2 0 1.7 2.9-.3 2.9-4.3 3.5-5.4 3.6l-.1.4c1.9 0 6.9-.6 7.7-3.2zM47.2 17.6h-2c1 2.8 3.9 3.7 5.8 4l-.1-.3c-2-.8-3-1.6-3.7-3.7zM30.6 16c.4 0 .6-.3.6-.7 0-.4-.3-.7-.6-.7-.4 0-.6.3-.6.7-.1.4.2.7.6.7zM30.6 19.7c.4 0 .8-1.7.8-2.5 0-.5-.4-.8-.8-.8s-.8.3-.8.8c0 .8.3 2.5.8 2.5zM30.1 13.6h.9l-.1-1.1 1.1.1v-.9l-1.1.2.1-1.1h-.9l.2 1.1-1.1-.2v.9l1.1-.1-.2 1.1z" fill="#13377D"/><path d="M26.6 21.1h.6c.9.1 1.8.2 2.5.4s1.6.4 2.4.4H33.4c.3 0 .6-.1.9-.2 0-.1 0-.1.1-.1.3-.9.6-2.2.6-2.9 0-1.2-.6-2.5-3-2.9 0 1.4-.7 5-1.5 5h-.1c-.8 0-1.5-3.5-1.5-5-2.3.4-3 1.7-3 2.9 0 .6.2 1.6.5 2.5.1-.1.1-.1.2-.1zM18.7 8.9s2-.6 2.9 2c.8 2.2-.7 2 .4 2.4 1.1.4.4 2.1.4 2.1 1.1-.2 1.8-2.1 1.2-4.2-.5-1.6-1.2-2.4-1.7-2.8-.8-.5-1.8-.6-3.2.5z" fill="#13377D"/><path d="M14.2 12.2c.6 1.7-2.6 4-2.6 4s5.6-1.4 5.6-4.7c.1-2.2.4-4 3.8-4.1-1.5-.3-1.6-.3-2.9-.3-.5 0-2.5.2-3.8 1.6-1.2 1.3.4 2.9-4.7 4 2.5.4 4.6-.5 4.6-.5zM20.2 16.9c-.3-2.9 1.7-2.9 1.7-2.9-.7-.5-2.8-.5-3.3-.1 0 0-1.3 1.1-.6 3.8.7 2.6 5.8 3.2 7.7 3.2l-.1-.4c-1.1-.1-5.1-.7-5.4-3.6zM40.9 17.6h-2c-.7 2.1-1.7 2.9-3.7 3.7l-.1.3c2-.3 4.8-1.2 5.8-4zM45.6 29.9c-.6.9-1.1 1.9-1.5 2.9.3-.4.8-.8 1.3-1.2.9-.6 1.7-1 1.7-1l.8-.3-.2.8s-.3 1.3-.2 2.4c0 .5.2 1 .3 1.3.2-.5.5-1 .8-1.5 1-1.3 1.8-1.8 1.8-1.8l.6-.3v.7s.2 2.3.7 3.5c.9 2 2.6 3.1 3.6 3.6l-.5-.5c-.5-.5-1-1.4-1.3-3.3-.2-1.6.4-3.2.6-3.7.1.4.3.8.5.9 0 0 0-.4.1-.8.2-1.1 1.4-2.8 3-3.8.3-.2.6-.4.8-.5.3-.1.5-.3.7-.5-.3 0-.7.1-1 .1h-1c-.8 0-1.7-.1-2.4-.7s-1-1.2-1.1-1.6h-1.2c-.6 0-1.1-.2-1.4-.2-.8.5-1.6.7-2.6.8h-.4c.3.3.7.5 1 .7h.1l-.2.1c.1-.1-1.3.7-3.4 3.9zM58.7 24.3h-1.1v.6c.1.3.2.5.4.7.3-.2.6-.7.7-1.3z" fill="#13377D"/><path d="M59.5 22c-.1 0-.1 0 0 0h-.1H59.1c-.8 0-1.6.2-2.4.4-.8.2-1.7.4-2.5.4H53h-.1-.1c-1.8-.2-3-.8-3.6-1.1.1.2.3.4.6.7l.3.3c.2.2.5.4.8.6.4.2 2.1.9 4.3.6 2.5-.4 3-.3 3.6-.3h.2c.9.1 2.2.6 2.7.9.2-.5.5-1 .6-1.5-.1-.1-.3-.3-.7-.5-.1-.1-.2-.1-.4-.2s-.5-.2-.9-.2c-.4-.1-.6-.1-.8-.1zM66.5 30.2c-.1 0-1 .5-2.9-.7s-3.3-1.7-4.1-1.9c-.2.1-.3.2-.5.3-.2.1-.5.3-.8.5-.1.1-.2.1-.3.2h.2c1.8.2 3.2 1.2 3.3 1.6h.1c.2-.6-.1-1.1-.1-1.1s.8.5 2.4 1.4c1.7 1.1 2.4.1 2.7-.3zM57 25.3c-.1-.1-.2-.3-.3-.4-.1-.2-.1-.3-.1-.4-.4 0-.9.1-1.5.2h-.4c.3.6.8 1.2 1.8 1.4h.4c.4.1.9.1 1.2.1.7 0 1.5-.1 2.3-.3.2-.2.3-.5.5-.7 0 0-.1-.1-.2-.1-.2-.1-.7-.4-1-.5-.1.3-.3.6-.5.8-.3.2-.7.3-1.1.3-.4 0-.8-.1-1-.3-.1 0-.1-.1-.1-.1zM62.3 23.8c-.6 1.6-1.6 2.8-2.3 3.4 4.5-1.2 5.3 1.1 5.3 1.2 0 .1 0 .1.1 0s1.6-1.7.5-3.2c-.9-1.2-2.9-1.4-3.6-1.4zm0 1.2c.2-.2.3-.6.3-.6.3 0 .9.1.9.5-.4-.1-.9-.1-1.2.1zM28.5 24.9v-.6h-1.1c.1.6.4 1.1.7 1.3.2-.2.3-.4.4-.7zM33.6 22.7c-.1 0-.1 0 0 0h-.1-1.3c-.9 0-1.7-.2-2.5-.4-.9-.1-1.7-.3-2.5-.3H27h-.6c-.4 0-.7.1-.9.2-.1.1-.3.1-.4.2-.3.2-.5.3-.7.5.1.5.4 1.1.6 1.5.5-.3 1.8-.9 2.7-.9h.2c.6 0 1.1-.1 3.6.3 2.2.3 3.8-.4 4.3-.6.3-.2.6-.4.8-.6l.3-.3c.2-.3.4-.5.6-.7-.9.3-2.1.9-3.9 1.1zM19.6 30.2c.3.3 1 1.4 2.6.5 1.6-.9 2.4-1.4 2.4-1.4s-.3.5-.1 1.1h.1c.2-.4 1.6-1.5 3.3-1.6h.2c-.1-.1-.2-.1-.3-.2-.3-.2-.6-.4-.8-.5-.2-.1-.3-.2-.5-.3-.8.1-2.2.7-4.1 1.9-1.8 1-2.7.5-2.8.5z" fill="#13377D"/><path d="M26.4 24.6l-1 .5c-.1 0-.1.1-.2.1.2.3.3.5.5.7.8.2 1.6.3 2.3.3.4 0 .8 0 1.2-.1h.4c1-.2 1.6-.9 1.8-1.4H31c-.6-.1-1.1-.2-1.5-.2 0 .1-.1.3-.1.4-.1.2-.2.3-.3.4l-.1.1c-.3.2-.6.3-1 .3s-.8-.1-1.1-.3c-.3-.2-.4-.5-.5-.8zM20.1 25.2c-1.1 1.5.4 3.1.5 3.2.1.1.1 0 .1 0 0-.1.8-2.4 5.3-1.2-.7-.6-1.7-1.8-2.3-3.4-.6 0-2.7.2-3.6 1.4zm3.7-.2c-.3-.2-.8-.2-1.2-.1 0-.4.6-.5.9-.5 0 0 .1.4.3.6z" fill="#13377D"/><path d="M37.9 25.2h-.4c-1 0-1.8-.3-2.6-.8-.3.1-.9.2-1.4.2h-1.2c-.1.4-.4 1.1-1.1 1.6-.7.6-1.6.7-2.4.7h-1c-.2 0-.6-.1-1-.1.3.2.5.3.7.5.2.1.5.3.8.5 1.6 1.1 2.8 2.7 3 3.8.1.4.1.8.1.8.2-.1.4-.5.5-.9.2.5.9 2.1.6 3.7-.3 1.9-.8 2.8-1.3 3.3l-.5.5c1-.5 2.7-1.6 3.6-3.6.5-1.1.7-3.4.7-3.4v-.7l.6.3s.9.5 1.8 1.8c.3.5.6 1 .8 1.5.1-.4.2-.8.3-1.3.1-1.2-.2-2.4-.2-2.4l-.2-.8.8.3s.8.3 1.7 1c.6.4 1 .8 1.3 1.2-.4-1-.8-2-1.5-2.9-2.1-3.2-3.4-3.9-3.4-3.9l-.2-.1h.1c.3-.3.7-.6 1-.8z" fill="#13377D"/></g><defs><clipPath id="clip0"><path fill="#fff" d="M0 0h343v96H0z"/></clipPath></defs></svg>