<svg width="41" height="35" fill="none" xmlns="http://www.w3.org/2000/svg"><path d="M39.517 5.769L20.992.055a1.248 1.248 0 00-.732 0L1.758 5.762l-.022.007c-.004 0-.008.003-.012.004a1.21 1.21 0 00-.146.058l-.017.007a1.176 1.176 0 00-.28.192l-.011.011a1.11 1.11 0 00-.095.104l-.019.023a1.06 1.06 0 00-.081.124l-.011.021a1.015 1.015 0 00-.058.13L1 6.455a1.001 1.001 0 00-.038.145l-.005.03a.99.99 0 00-.013.154v14.284c0 .284.122.557.34.758.216.2.51.314.818.314.307 0 .601-.113.819-.314.217-.201.339-.474.339-.758V8.271l7.463 2.302a10.622 10.622 0 00-1.874 4.262 10.262 10.262 0 00.162 4.599 10.746 10.746 0 002.168 4.14 11.779 11.779 0 003.801 2.967c-3.931 1.19-7.305 3.589-9.558 6.799a.993.993 0 00-.166.807c.03.138.091.27.177.386.086.116.196.216.324.293a1.249 1.249 0 001.29-.015c.125-.08.232-.182.315-.3 1.437-2.044 3.403-3.723 5.72-4.886a16.848 16.848 0 017.544-1.77c2.635 0 5.229.608 7.545 1.77 2.316 1.163 4.282 2.842 5.72 4.885.082.119.19.22.315.3a1.249 1.249 0 001.29.015c.127-.076.237-.176.323-.292.086-.117.146-.248.177-.386a.994.994 0 00-.166-.807c-2.253-3.21-5.626-5.61-9.558-6.8a11.778 11.778 0 003.8-2.966 10.746 10.746 0 002.17-4.14c.4-1.506.456-3.072.161-4.599a10.622 10.622 0 00-1.873-4.262l8.986-2.772c.231-.07.431-.207.574-.39.142-.182.218-.401.218-.626 0-.225-.076-.444-.218-.626a1.156 1.156 0 00-.574-.39zm-9.243 11.015a8.394 8.394 0 01-1.07 4.09 9.168 9.168 0 01-2.975 3.18 10.1 10.1 0 01-4.22 1.568 10.388 10.388 0 01-4.526-.395 9.77 9.77 0 01-3.829-2.27 8.799 8.799 0 01-2.28-3.64 8.287 8.287 0 01-.225-4.201 8.632 8.632 0 011.88-3.832l7.231 2.231c.238.073.495.073.732 0l7.232-2.23c1.33 1.568 2.052 3.505 2.05 5.499zm-2.056-7.756l-.004.001-7.588 2.34-7.587-2.34-.005-.001-7.27-2.243L20.625 2.2 35.49 6.785l-7.271 2.243z" fill="#13377D"/></svg>