<svg width="34" height="38" viewBox="0 0 34 38" fill="none" xmlns="http://www.w3.org/2000/svg">
<path d="M30.6 4.45312H29.4667V3.33984C29.4667 1.49848 27.9412 0 26.0667 0H3.4C1.52547 0 0 1.49848 0 3.33984V30.207C0 32.0484 1.52547 33.5469 3.4 33.5469H4.53333V34.6602C4.53333 36.5015 6.0588 38 7.93333 38H30.6C32.4745 38 34 36.5015 34 34.6602V7.79297C34 5.9516 32.4745 4.45312 30.6 4.45312ZM5.52916 8.58043C4.88693 9.21129 4.53333 10.05 4.53333 10.9421V31.3203H3.4C2.77516 31.3203 2.26667 30.8208 2.26667 30.207V3.33984C2.26667 2.72605 2.77516 2.22656 3.4 2.22656H26.0667C26.6915 2.22656 27.2 2.72605 27.2 3.33984V4.45312H11.1392C10.231 4.45312 9.3772 4.80047 8.73498 5.43133L5.52916 8.58043ZM11.3333 6.67969V11.1328H6.8V10.9421C6.8 10.6445 6.91787 10.3654 7.13169 10.1546L10.3375 7.00551C10.5513 6.79547 10.8362 6.67969 11.1392 6.67969H11.3333ZM31.7333 34.6602C31.7333 35.2739 31.2248 35.7734 30.6 35.7734H7.93333C7.30849 35.7734 6.8 35.2739 6.8 34.6602V13.3594H12.4667C13.0923 13.3594 13.6 12.8606 13.6 12.2461V6.67969H30.6C31.2248 6.67969 31.7333 7.17918 31.7333 7.79297V34.6602Z" fill="#13377D"/>
<path d="M28.3331 15.7344H10.1997C9.57414 15.7344 9.06641 16.2331 9.06641 16.8477C9.06641 17.4622 9.57414 17.9609 10.1997 17.9609H28.3331C28.9587 17.9609 29.4664 17.4622 29.4664 16.8477C29.4664 16.2331 28.9587 15.7344 28.3331 15.7344Z" fill="#13377D"/>
<path d="M28.3331 20.1875H10.1997C9.57414 20.1875 9.06641 20.6863 9.06641 21.3008C9.06641 21.9153 9.57414 22.4141 10.1997 22.4141H28.3331C28.9587 22.4141 29.4664 21.9153 29.4664 21.3008C29.4664 20.6863 28.9587 20.1875 28.3331 20.1875Z" fill="#13377D"/>
<path d="M28.3331 24.6406H10.1997C9.57414 24.6406 9.06641 25.1394 9.06641 25.7539C9.06641 26.3684 9.57414 26.8672 10.1997 26.8672H28.3331C28.9587 26.8672 29.4664 26.3684 29.4664 25.7539C29.4664 25.1394 28.9587 24.6406 28.3331 24.6406Z" fill="#13377D"/>
<path d="M28.3331 29.0938H10.1997C9.57414 29.0938 9.06641 29.5925 9.06641 30.207C9.06641 30.8216 9.57414 31.3203 10.1997 31.3203H28.3331C28.9587 31.3203 29.4664 30.8216 29.4664 30.207C29.4664 29.5925 28.9587 29.0938 28.3331 29.0938Z" fill="#13377D"/>
</svg>
