<svg width="41" height="35" viewBox="0 0 41 35" fill="none" xmlns="http://www.w3.org/2000/svg">
<path d="M39.5165 5.76863L20.9922 0.0548972C20.7546 -0.0182991 20.4977 -0.0182991 20.2601 0.0548972L1.75781 5.76185H1.75723L1.73581 5.76863C1.73157 5.76988 1.7279 5.77202 1.72366 5.77327C1.67361 5.78926 1.6248 5.80841 1.57758 5.83059C1.57218 5.83309 1.56659 5.83523 1.56138 5.83791C1.51454 5.86103 1.46947 5.8871 1.4265 5.91594C1.41706 5.92235 1.40773 5.92889 1.39852 5.93558C1.35683 5.96469 1.31731 5.99637 1.28023 6.03039L1.26981 6.04111C1.23584 6.07387 1.20414 6.10858 1.17487 6.14502C1.1687 6.1527 1.16233 6.1602 1.15635 6.16806C1.12615 6.20761 1.09888 6.24901 1.07473 6.29197C1.07087 6.29894 1.06739 6.30608 1.06373 6.31304C1.0413 6.35496 1.02189 6.39821 1.00565 6.4425C1.00391 6.44696 1.00179 6.45142 1.00024 6.45589C0.983986 6.5034 0.971348 6.55191 0.962423 6.60105C0.960493 6.61123 0.95895 6.62159 0.957213 6.63194C0.948878 6.68259 0.944493 6.73373 0.944092 6.78496V21.0693C0.944092 21.3534 1.06607 21.6259 1.28319 21.8268C1.50032 22.0278 1.7948 22.1406 2.10186 22.1406C2.40892 22.1406 2.7034 22.0278 2.92053 21.8268C3.13765 21.6259 3.25963 21.3534 3.25963 21.0693V8.27143L10.7228 10.5733C9.78252 11.8569 9.14423 13.3089 8.84932 14.8353C8.5544 16.3618 8.60943 17.9285 9.01084 19.434C9.41225 20.9395 10.1511 22.3501 11.1794 23.5744C12.2078 24.7987 13.5027 25.8094 14.9803 26.5409C11.0485 27.7305 7.67531 30.1299 5.42195 33.3399C5.33818 33.4577 5.28038 33.5897 5.25187 33.7283C5.22336 33.8669 5.2247 34.0093 5.25582 34.1474C5.28693 34.2854 5.34721 34.4165 5.4332 34.533C5.51918 34.6494 5.62917 34.7491 5.75687 34.8261C5.88456 34.9031 6.02743 34.9561 6.1773 34.9819C6.32716 35.0077 6.48105 35.0059 6.63015 34.9765C6.77925 34.9472 6.92062 34.8909 7.04614 34.8108C7.17166 34.7308 7.27886 34.6286 7.3616 34.5101C8.79907 32.4667 10.7652 30.7876 13.0815 29.6253C15.3979 28.463 17.9912 27.8542 20.6262 27.8542C23.2611 27.8542 25.8545 28.463 28.1708 29.6253C30.4871 30.7876 32.4532 32.4667 33.8907 34.5101C33.9734 34.6286 34.0806 34.7308 34.2062 34.8108C34.3317 34.8909 34.473 34.9472 34.6221 34.9765C34.7712 35.0059 34.9251 35.0077 35.075 34.9819C35.2249 34.9561 35.3677 34.9031 35.4954 34.8261C35.6231 34.7491 35.7331 34.6494 35.8191 34.533C35.9051 34.4165 35.9654 34.2854 35.9965 34.1474C36.0276 34.0093 36.0289 33.8669 36.0004 33.7283C35.9719 33.5897 35.9141 33.4577 35.8303 33.3399C33.577 30.1299 30.2038 27.7305 26.272 26.5409C27.7496 25.8094 29.0445 24.7987 30.0728 23.5744C31.1012 22.3501 31.84 20.9395 32.2415 19.434C32.6429 17.9285 32.6979 16.3618 32.403 14.8353C32.1081 13.3089 31.4698 11.8569 30.5295 10.5733L39.5165 7.80129C39.747 7.73018 39.9475 7.59376 40.0896 7.41136C40.2316 7.22895 40.3081 7.00981 40.3081 6.78496C40.3081 6.56012 40.2316 6.34098 40.0896 6.15857C39.9475 5.97617 39.747 5.83975 39.5165 5.76863ZM30.2742 16.784C30.2747 18.2065 29.9078 19.6085 29.2042 20.8732C28.5006 22.1379 27.4805 23.2288 26.229 24.0548C24.9776 24.8809 23.5309 25.4183 22.0095 25.6223C20.4881 25.8262 18.9361 25.6908 17.4827 25.2274C16.0293 24.7639 14.7167 23.9858 13.6541 22.9579C12.5915 21.9299 11.8097 20.6819 11.3739 19.3178C10.9381 17.9536 10.8609 16.5129 11.1486 15.1156C11.4364 13.7182 12.0809 12.4047 13.0283 11.2845L20.2601 13.515C20.4977 13.5882 20.7546 13.5882 20.9922 13.515L28.224 11.2845C29.5539 12.8534 30.2758 14.7901 30.2742 16.784ZM28.218 9.02778L28.2136 9.02921L20.6262 11.3695L13.0389 9.02921L13.0343 9.02778L5.76311 6.78496L20.6262 2.2004L35.4892 6.78496L28.218 9.02778Z" fill="#13377D"/>
</svg>
